<mxfile host="app.diagrams.net" agent="Mozilla/5.0 (Windows NT 10.0; Win64; x64) AppleWebKit/537.36 (KHTML, like Gecko) Chrome/132.0.0.0 Safari/537.36 OPR/117.0.0.0 (Edition Yx GX)" version="26.2.8">
  <diagram name="Страница — 1" id="2uaYnaYtvP1O9YSCE_qo">
    <mxGraphModel dx="744" dy="2854" grid="1" gridSize="10" guides="1" tooltips="1" connect="1" arrows="1" fold="1" page="1" pageScale="1" pageWidth="1100" pageHeight="1700" math="0" shadow="0">
      <root>
        <mxCell id="0" />
        <mxCell id="1" parent="0" />
        <mxCell id="wAAHfIQmaVPx0DDDZskU-1" value="управление арендой офисных помещений" style="rounded=0;whiteSpace=wrap;html=1;" parent="1" vertex="1">
          <mxGeometry x="458" y="80" width="130" height="60" as="geometry" />
        </mxCell>
        <mxCell id="wAAHfIQmaVPx0DDDZskU-2" value="" style="endArrow=classic;html=1;rounded=0;entryX=0;entryY=0;entryDx=0;entryDy=0;" parent="1" target="wAAHfIQmaVPx0DDDZskU-1" edge="1">
          <mxGeometry width="50" height="50" relative="1" as="geometry">
            <mxPoint x="458" y="-10" as="sourcePoint" />
            <mxPoint x="558" y="280" as="targetPoint" />
          </mxGeometry>
        </mxCell>
        <mxCell id="wAAHfIQmaVPx0DDDZskU-3" value="Запрос на аренду&amp;nbsp;" style="text;html=1;align=center;verticalAlign=middle;resizable=0;points=[];autosize=1;strokeColor=none;fillColor=none;rotation=-90;" parent="1" vertex="1">
          <mxGeometry x="388" y="-90" width="130" height="30" as="geometry" />
        </mxCell>
        <mxCell id="wAAHfIQmaVPx0DDDZskU-7" value="" style="endArrow=classic;html=1;rounded=0;entryX=1;entryY=0;entryDx=0;entryDy=0;" parent="1" target="wAAHfIQmaVPx0DDDZskU-1" edge="1">
          <mxGeometry width="50" height="50" relative="1" as="geometry">
            <mxPoint x="588" y="-10" as="sourcePoint" />
            <mxPoint x="558" y="280" as="targetPoint" />
          </mxGeometry>
        </mxCell>
        <mxCell id="wAAHfIQmaVPx0DDDZskU-8" value="Данные о доступных помещениях&amp;nbsp;" style="text;html=1;align=center;verticalAlign=middle;resizable=0;points=[];autosize=1;strokeColor=none;fillColor=none;rotation=-90;" parent="1" vertex="1">
          <mxGeometry x="478" y="-140" width="220" height="30" as="geometry" />
        </mxCell>
        <mxCell id="wAAHfIQmaVPx0DDDZskU-9" value="" style="endArrow=classic;html=1;rounded=0;entryX=0.5;entryY=0;entryDx=0;entryDy=0;" parent="1" edge="1">
          <mxGeometry width="50" height="50" relative="1" as="geometry">
            <mxPoint x="520" y="-10" as="sourcePoint" />
            <mxPoint x="520.0000000000001" y="80" as="targetPoint" />
          </mxGeometry>
        </mxCell>
        <mxCell id="wAAHfIQmaVPx0DDDZskU-10" value="Финансовые данные&amp;nbsp;" style="text;html=1;align=center;verticalAlign=middle;resizable=0;points=[];autosize=1;strokeColor=none;fillColor=none;rotation=-90;" parent="1" vertex="1">
          <mxGeometry x="448" y="-100" width="140" height="30" as="geometry" />
        </mxCell>
        <mxCell id="wAAHfIQmaVPx0DDDZskU-14" value="Договоры Аренды" style="text;html=1;align=center;verticalAlign=middle;resizable=0;points=[];autosize=1;strokeColor=none;fillColor=none;rotation=90;" parent="1" vertex="1">
          <mxGeometry x="401" y="280" width="120" height="30" as="geometry" />
        </mxCell>
        <mxCell id="wAAHfIQmaVPx0DDDZskU-18" value="Отчеты о занятости" style="text;html=1;align=center;verticalAlign=middle;resizable=0;points=[];autosize=1;strokeColor=none;fillColor=none;rotation=90;" parent="1" vertex="1">
          <mxGeometry x="458" y="285" width="130" height="30" as="geometry" />
        </mxCell>
        <mxCell id="wAAHfIQmaVPx0DDDZskU-19" value="Финансовые отчеты" style="text;html=1;align=center;verticalAlign=middle;resizable=0;points=[];autosize=1;strokeColor=none;fillColor=none;rotation=90;" parent="1" vertex="1">
          <mxGeometry x="520" y="284" width="140" height="30" as="geometry" />
        </mxCell>
        <mxCell id="wAAHfIQmaVPx0DDDZskU-21" value="" style="endArrow=classic;html=1;rounded=0;entryX=0.011;entryY=1.005;entryDx=0;entryDy=0;entryPerimeter=0;" parent="1" target="wAAHfIQmaVPx0DDDZskU-1" edge="1">
          <mxGeometry width="50" height="50" relative="1" as="geometry">
            <mxPoint x="459" y="240" as="sourcePoint" />
            <mxPoint x="558" y="280" as="targetPoint" />
          </mxGeometry>
        </mxCell>
        <mxCell id="wAAHfIQmaVPx0DDDZskU-22" value="" style="endArrow=classic;html=1;rounded=0;entryX=0.479;entryY=1.004;entryDx=0;entryDy=0;entryPerimeter=0;" parent="1" edge="1" target="wAAHfIQmaVPx0DDDZskU-1">
          <mxGeometry width="50" height="50" relative="1" as="geometry">
            <mxPoint x="520" y="240" as="sourcePoint" />
            <mxPoint x="522.5" y="140" as="targetPoint" />
          </mxGeometry>
        </mxCell>
        <mxCell id="wAAHfIQmaVPx0DDDZskU-24" value="" style="endArrow=classic;html=1;rounded=0;entryX=1;entryY=1;entryDx=0;entryDy=0;" parent="1" target="wAAHfIQmaVPx0DDDZskU-1" edge="1">
          <mxGeometry width="50" height="50" relative="1" as="geometry">
            <mxPoint x="590" y="240" as="sourcePoint" />
            <mxPoint x="558" y="280" as="targetPoint" />
          </mxGeometry>
        </mxCell>
        <mxCell id="wAAHfIQmaVPx0DDDZskU-25" value="Политики аренды" style="text;html=1;align=center;verticalAlign=middle;whiteSpace=wrap;rounded=0;" parent="1" vertex="1">
          <mxGeometry x="228" y="65" width="120" height="30" as="geometry" />
        </mxCell>
        <mxCell id="wAAHfIQmaVPx0DDDZskU-26" value="" style="endArrow=classic;html=1;rounded=0;entryX=0;entryY=0;entryDx=0;entryDy=0;" parent="1" target="wAAHfIQmaVPx0DDDZskU-1" edge="1">
          <mxGeometry width="50" height="50" relative="1" as="geometry">
            <mxPoint x="360" y="80" as="sourcePoint" />
            <mxPoint x="558" y="280" as="targetPoint" />
          </mxGeometry>
        </mxCell>
        <mxCell id="wAAHfIQmaVPx0DDDZskU-27" value="Регламенты и процедуры" style="text;html=1;align=center;verticalAlign=middle;whiteSpace=wrap;rounded=0;" parent="1" vertex="1">
          <mxGeometry x="180" y="95" width="168" height="30" as="geometry" />
        </mxCell>
        <mxCell id="wAAHfIQmaVPx0DDDZskU-28" value="" style="endArrow=classic;html=1;rounded=0;entryX=0;entryY=0.5;entryDx=0;entryDy=0;" parent="1" target="wAAHfIQmaVPx0DDDZskU-1" edge="1">
          <mxGeometry width="50" height="50" relative="1" as="geometry">
            <mxPoint x="360" y="110" as="sourcePoint" />
            <mxPoint x="558" y="280" as="targetPoint" />
          </mxGeometry>
        </mxCell>
        <mxCell id="wAAHfIQmaVPx0DDDZskU-29" value="Бюджетные ограничения" style="text;html=1;align=center;verticalAlign=middle;resizable=0;points=[];autosize=1;strokeColor=none;fillColor=none;" parent="1" vertex="1">
          <mxGeometry x="188" y="125" width="160" height="30" as="geometry" />
        </mxCell>
        <mxCell id="wAAHfIQmaVPx0DDDZskU-30" value="" style="endArrow=classic;html=1;rounded=0;entryX=0;entryY=1;entryDx=0;entryDy=0;" parent="1" target="wAAHfIQmaVPx0DDDZskU-1" edge="1">
          <mxGeometry width="50" height="50" relative="1" as="geometry">
            <mxPoint x="360" y="140" as="sourcePoint" />
            <mxPoint x="558" y="280" as="targetPoint" />
          </mxGeometry>
        </mxCell>
        <mxCell id="wAAHfIQmaVPx0DDDZskU-31" value="" style="endArrow=classic;html=1;rounded=0;exitX=1;exitY=0;exitDx=0;exitDy=0;" parent="1" source="wAAHfIQmaVPx0DDDZskU-1" edge="1">
          <mxGeometry width="50" height="50" relative="1" as="geometry">
            <mxPoint x="508" y="330" as="sourcePoint" />
            <mxPoint x="700" y="80" as="targetPoint" />
          </mxGeometry>
        </mxCell>
        <mxCell id="wAAHfIQmaVPx0DDDZskU-32" value="Персонал отдела аренды" style="text;html=1;align=center;verticalAlign=middle;resizable=0;points=[];autosize=1;strokeColor=none;fillColor=none;" parent="1" vertex="1">
          <mxGeometry x="688" y="65" width="170" height="30" as="geometry" />
        </mxCell>
        <mxCell id="wAAHfIQmaVPx0DDDZskU-33" value="Информационные системы" style="text;html=1;align=center;verticalAlign=middle;resizable=0;points=[];autosize=1;strokeColor=none;fillColor=none;" parent="1" vertex="1">
          <mxGeometry x="690" y="125" width="180" height="30" as="geometry" />
        </mxCell>
        <mxCell id="wAAHfIQmaVPx0DDDZskU-34" value="Юридическая поддержка" style="text;html=1;align=center;verticalAlign=middle;resizable=0;points=[];autosize=1;strokeColor=none;fillColor=none;" parent="1" vertex="1">
          <mxGeometry x="692" y="95" width="160" height="30" as="geometry" />
        </mxCell>
        <mxCell id="wAAHfIQmaVPx0DDDZskU-35" value="" style="endArrow=classic;html=1;rounded=0;exitX=1;exitY=0.5;exitDx=0;exitDy=0;" parent="1" source="wAAHfIQmaVPx0DDDZskU-1" edge="1">
          <mxGeometry width="50" height="50" relative="1" as="geometry">
            <mxPoint x="590" y="113" as="sourcePoint" />
            <mxPoint x="700" y="110" as="targetPoint" />
          </mxGeometry>
        </mxCell>
        <mxCell id="wAAHfIQmaVPx0DDDZskU-36" value="" style="endArrow=classic;html=1;rounded=0;" parent="1" edge="1">
          <mxGeometry width="50" height="50" relative="1" as="geometry">
            <mxPoint x="588" y="140" as="sourcePoint" />
            <mxPoint x="700" y="140" as="targetPoint" />
          </mxGeometry>
        </mxCell>
        <mxCell id="wAAHfIQmaVPx0DDDZskU-37" style="edgeStyle=orthogonalEdgeStyle;rounded=0;orthogonalLoop=1;jettySize=auto;html=1;exitX=0.5;exitY=1;exitDx=0;exitDy=0;" parent="1" source="wAAHfIQmaVPx0DDDZskU-25" target="wAAHfIQmaVPx0DDDZskU-25" edge="1">
          <mxGeometry relative="1" as="geometry" />
        </mxCell>
        <mxCell id="cVJnYB2zfQFBB4gf8GuG-2" value="A0" style="text;html=1;align=center;verticalAlign=middle;whiteSpace=wrap;rounded=0;" vertex="1" parent="1">
          <mxGeometry x="550" y="120" width="60" height="30" as="geometry" />
        </mxCell>
      </root>
    </mxGraphModel>
  </diagram>
</mxfile>
